<svg width="512" height="512" viewBox="0 0 512 512" fill="none" xmlns="http://www.w3.org/2000/svg">
<circle cx="256" cy="256" r="256" fill="#5B5B5B"/>
<path d="M114.727 288.455C105.758 288.455 98.0606 285.242 91.6364 278.818C85.2121 272.394 82 264.697 82 255.727C82 246.758 85.2121 239.061 91.6364 232.636C98.0606 226.212 105.758 223 114.727 223C123.697 223 131.394 226.212 137.818 232.636C144.242 239.061 147.455 246.758 147.455 255.727C147.455 261.667 145.939 267.121 142.909 272.091C140 277.061 136.061 281.061 131.091 284.091C126.242 287 120.788 288.455 114.727 288.455Z" fill="white"/>
<path d="M255.727 288.455C246.758 288.455 239.061 285.242 232.636 278.818C226.212 272.394 223 264.697 223 255.727C223 246.758 226.212 239.061 232.636 232.636C239.061 226.212 246.758 223 255.727 223C264.697 223 272.394 226.212 278.818 232.636C285.242 239.061 288.455 246.758 288.455 255.727C288.455 261.667 286.939 267.121 283.909 272.091C281 277.061 277.061 281.061 272.091 284.091C267.242 287 261.788 288.455 255.727 288.455Z" fill="white"/>
<path d="M396.727 288.455C387.758 288.455 380.061 285.242 373.636 278.818C367.212 272.394 364 264.697 364 255.727C364 246.758 367.212 239.061 373.636 232.636C380.061 226.212 387.758 223 396.727 223C405.697 223 413.394 226.212 419.818 232.636C426.242 239.061 429.455 246.758 429.455 255.727C429.455 261.667 427.939 267.121 424.909 272.091C422 277.061 418.061 281.061 413.091 284.091C408.242 287 402.788 288.455 396.727 288.455Z" fill="white"/>
</svg>
