<svg width="512" height="512" viewBox="0 0 512 512" fill="none" xmlns="http://www.w3.org/2000/svg">
<circle cx="256" cy="256" r="256" fill="#5B5B5B"/>
<path fill-rule="evenodd" clip-rule="evenodd" d="M112 160C112 133.49 133.49 112 160 112H352C378.51 112 400 133.49 400 160V352C400 378.51 378.51 400 352 400H160C133.49 400 112 378.51 112 352V160ZM160 144C151.163 144 144 151.163 144 160V352C144 360.837 151.163 368 160 368H352C360.837 368 368 360.837 368 352V160C368 151.163 360.837 144 352 144H160Z" fill="white"/>
<path d="M205.992 348H188.398L196.811 337.3L205.992 348ZM351.208 348H297.128L320.398 301.687L351.208 348Z" stroke="white" stroke-width="48"/>
<circle cx="236" cy="242" r="20" fill="white"/>
</svg>
