<svg width="512" height="512" viewBox="0 0 512 512" fill="none" xmlns="http://www.w3.org/2000/svg">
<circle cx="256" cy="256" r="256" fill="#5B5B5B"/>
<path d="M186.075 408.597C179.249 405.752 174.475 399.461 173.572 392.121L151.004 208.636C148.657 189.557 163.542 172.729 182.765 172.729H329.309C348.532 172.729 363.417 189.557 361.07 208.636L338.648 390.938C337.659 398.974 332.32 405.811 324.763 408.718C322.252 409.684 319.585 410.179 316.895 410.179H193.986C191.271 410.179 188.582 409.641 186.075 408.597Z" fill="#FF0000"/>
<path d="M149.314 118.314C143.723 118.314 138.475 121.014 135.225 125.564C130.925 131.584 130.925 139.672 135.225 145.692C138.475 150.242 143.723 152.942 149.314 152.942H362.322C367.454 152.942 372.315 150.633 375.557 146.654C380.533 140.546 380.685 131.827 375.923 125.551L375.699 125.255C372.382 120.882 367.209 118.314 361.721 118.314H149.314Z" fill="#FF0000"/>
<path d="M202.393 101C200.123 101 198.143 102.545 197.593 104.748L194.462 117.27C193.948 119.328 196.574 120.661 197.931 119.032C198.311 118.577 198.872 118.314 199.464 118.314H312.578C313.194 118.314 313.781 118.572 314.197 119.026C315.755 120.726 318.545 119.183 317.933 116.96L314.601 104.842C313.977 102.573 311.913 101 309.559 101H202.393Z" fill="#FF0000"/>
</svg>
