<svg width="512" height="576" viewBox="0 0 512 576" fill="none" xmlns="http://www.w3.org/2000/svg">
<circle cx="256" cy="320" r="256" fill="#5B5B5B"/>
<path fill-rule="evenodd" clip-rule="evenodd" d="M382.598 324.935C383.48 323.534 384 321.821 384 319.992C384 318.167 383.482 316.467 382.58 315.026C382.335 314.611 382.097 314.259 381.834 313.923L381.851 313.948C381.012 312.798 379.98 311.842 378.779 311.128L378.729 311.103C378.631 311.044 378.557 310.958 378.483 310.872C378.398 310.773 378.313 310.674 378.192 310.616L143.175 193.108C141.807 192.411 140.196 192 138.492 192C132.692 192 128 196.7 128 202.492C128 203.986 128.311 205.404 128.873 206.689L128.848 206.621L128.878 206.691L159.417 224.684L329.065 309.5H195.777L177.437 320L195.777 330.483H329.065L159.417 415.299L128.848 433.379C128.311 434.596 128 436.014 128 437.508C128 443.3 132.7 448 138.492 448H138.525C140.229 448 141.832 447.589 143.251 446.859L143.192 446.884L378.209 329.384C378.327 329.327 378.409 329.231 378.491 329.134C378.566 329.046 378.642 328.957 378.746 328.897C379.988 328.158 381.029 327.202 381.843 326.077L381.86 326.043C382.111 325.724 382.363 325.355 382.581 324.977L382.607 324.927L382.598 324.935Z" fill="white"/>
<path d="M177.437 320L128.848 433.379L159.417 415.299L195.777 330.483L177.437 320Z" fill="white"/>
<path d="M195.777 309.5L159.417 224.684L128.878 206.691L177.437 320L195.777 309.5Z" fill="white"/>
</svg>
