<svg width="512" height="512" viewBox="0 0 512 512" fill="none" xmlns="http://www.w3.org/2000/svg">
<circle cx="256" cy="256" r="256" fill="#5B5B5B"/>
<path fill-rule="evenodd" clip-rule="evenodd" d="M382.598 260.935C383.48 259.534 384 257.821 384 255.992C384 254.167 383.482 252.467 382.58 251.026C382.335 250.611 382.097 250.259 381.834 249.923L381.851 249.948C381.012 248.798 379.98 247.842 378.779 247.128L378.729 247.103C378.631 247.044 378.557 246.958 378.483 246.872C378.398 246.773 378.313 246.674 378.192 246.616L143.175 129.108C141.807 128.411 140.196 128 138.492 128C132.692 128 128 132.7 128 138.492C128 139.986 128.311 141.404 128.873 142.689L128.848 142.621L128.878 142.691L159.417 160.684L329.065 245.5H195.777L177.437 256L195.777 266.483H329.065L159.417 351.299L128.848 369.379C128.311 370.596 128 372.014 128 373.508C128 379.3 132.7 384 138.492 384H138.525C140.229 384 141.832 383.589 143.251 382.859L143.192 382.884L378.209 265.384C378.327 265.327 378.409 265.231 378.491 265.134C378.566 265.046 378.642 264.957 378.746 264.897C379.988 264.158 381.029 263.202 381.843 262.077L381.86 262.043C382.111 261.724 382.363 261.355 382.581 260.977L382.607 260.927L382.598 260.935Z" fill="white"/>
<path d="M177.437 256L128.848 369.379L159.417 351.299L195.777 266.483L177.437 256Z" fill="white"/>
<path d="M195.777 245.5L159.417 160.684L128.878 142.691L177.437 256L195.777 245.5Z" fill="white"/>
</svg>
